# xmcd
#
# Track frame offsets:
#	150
#	16854
#	33071
#	49545
#	67834
#	85062
#	102809
#	120053
#	140760
#	158784
#	174638
#	192324
#	206858
#	226831
#	242213
#	259252
#
# Disc length: 3621 seconds
#
# Revision: 1
# Processed by: cddbd v1.5.1PL0 Copyright (c) Steve Scherf et al.
# Submitted via: EasyCDDAExtractor 7.5.0.1
#
DISCID=c80e2310
DTITLE=Grupo Candieiro - 16 Grandes Sucessos
DYEAR=1900
DGENRE=Gaúcha
TTITLE0=Vem chegando o Gaiteiro
TTITLE1=Alambrador
TTITLE2=À Moda Campeira
TTITLE3=Mulher Chorona
TTITLE4=Marcação
TTITLE5=O Rei do Vanerão
TTITLE6=Tá Pegando Fogo
TTITLE7=Guasca e Domador
TTITLE8=Estirpe Gaúcha
TTITLE9=Tio Juvêncio
TTITLE10=Todo Mundo Veio Pro Rodeio
TTITLE11=Cancha Reta
TTITLE12=Juntando Beiço com Beiço
TTITLE13=Tô Chegando no Pedaço
TTITLE14="Cheguemo" no Baile
TTITLE15=Buenas Amigo
EXTD=
EXTT0=
EXTT1=
EXTT2=
EXTT3=
EXTT4=
EXTT5=
EXTT6=
EXTT7=
EXTT8=
EXTT9=
EXTT10=
EXTT11=
EXTT12=
EXTT13=
EXTT14=
EXTT15=
PLAYORDER=
